/* XPM */
static char *result[] = {
/* columns rows colors chars-per-pixel */
"50 50 115 2 ",
"   c #BF0615",
".  c #B60D18",
"X  c #B90E19",
"o  c #BF111D",
"O  c #C6000D",
"+  c #C9000D",
"@  c #D40001",
"#  c #DC0000",
"$  c #D60009",
"%  c #D8000B",
"&  c #C30D1A",
"*  c #D00415",
"=  c #DB0014",
"-  c #C3131F",
";  c #C8121F",
":  c #E70000",
">  c #EF0000",
",  c #F20014",
"<  c #DD0E21",
"1  c #C51520",
"2  c #CC1722",
"3  c #C61C25",
"4  c #CE1824",
"5  c #D31623",
"6  c #DE1625",
"7  c #D31A26",
"8  c #DC1927",
"9  c #D61B28",
"0  c #DD1D2A",
"q  c #E21628",
"w  c #E11E2C",
"e  c #E91E2C",
"r  c #F5172F",
"t  c #C4272F",
"y  c #CA262F",
"u  c #DC212D",
"i  c #DD2C36",
"p  c #DC303A",
"a  c #E1212E",
"s  c #E22532",
"d  c #E32A36",
"f  c #EE2835",
"g  c #E42E3A",
"h  c #EF2E3B",
"j  c #E4323D",
"k  c #E8333F",
"l  c #F0333F",
"z  c #E63541",
"x  c #E73A46",
"c  c #E83A45",
"v  c #E93E49",
"b  c #F83745",
"n  c #F43E4A",
"m  c #E9424D",
"M  c #EA4651",
"N  c #EB4A55",
"B  c #F54450",
"V  c #F44B55",
"C  c #F84953",
"Z  c #F24E58",
"A  c #ED535C",
"S  c #EF5660",
"D  c #EE5862",
"F  c #F05B65",
"G  c #F15E68",
"H  c #F3646E",
"J  c #FB666F",
"K  c #F36770",
"L  c #F56C75",
"P  c #FF6A73",
"I  c #F6727A",
"U  c #F8727B",
"Y  c #FB7C84",
"T  c #DC8089",
"R  c #F5868C",
"E  c #FD848C",
"W  c #FC888F",
"Q  c #E08A93",
"!  c #F68990",
"~  c #FE8C94",
"^  c #FB9097",
"/  c #FF9299",
"(  c #FF999F",
")  c #E69CA6",
"_  c #FF9BA1",
"`  c #D5A7AE",
"'  c #D7AAB2",
"]  c #DBB2BB",
"[  c #F7A0A6",
"{  c #FDA1A6",
"}  c #FEA6AB",
"|  c #EBB1BA",
" . c #FDB5B9",
".. c #FEB9BD",
"X. c #DDBCC4",
"o. c #FFBDC1",
"O. c #E0C6CE",
"+. c #FFC4C7",
"@. c #F0C5CE",
"#. c #FEC5C8",
"$. c #FEC8CB",
"%. c #E4D0DA",
"&. c #F1D4DD",
"*. c #FFD9DB",
"=. c #E6DBE3",
"-. c #ECDCE5",
";. c #E7E3EB",
":. c #FFE4E5",
">. c #FFE7E8",
",. c #FFE8E9",
"<. c #EAECF4",
"1. c #FFEFF0",
"2. c #FFF2F2",
"3. c #FFF8F9",
"4. c None",
/* pixels */
"4.4.4.4.4.4.4.4.4.4.4.4.4.4.4.4.4.4.4.4.4.4.4.4.4.4.4.4.4.4.4.4.4.4.4.4.4.4.4.4.4.4.4.4.4.4.4.4.4.4.",
"4.4.4.4.4.4.4.4.4.4.4.4.4.4.4.4.4.4.4.4.4.4.4.4.4.4.4.4.4.4.4.4.4.4.4.4.4.4.4.4.4.4.4.4.4.4.4.4.4.4.",
"4.4.4.4.4.4.4.4.4.4.4.4.4.4.4.4.4.4.4.4.4.4.4.4.4.4.4.4.4.4.4.4.4.4.4.4.4.4.4.4.4.4.4.4.4.4.4.4.4.4.",
"4.4.4.4.4.4.4.4.4.4.4.4.4.4.4.4.4.4.4.4.4.4.4.4.4.4.4.4.4.4.4.4.4.4.4.4.4.4.4.4.4.4.4.4.4.4.4.4.4.4.",
"4.4.4.4.4.4.4.4.4.4.4.4.4.4.4.4.4.4.4.4.4.4.4.4.4.4.4.4.4.4.4.4.4.4.4.4.4.4.4.4.4.4.4.4.4.4.4.4.4.4.",
"4.4.4.4.4.4.4.4.4.4.4.4.4.4.4.4.4.4.4.4.4.4.4.4.4.4.4.4.4.4.4.4.4.4.4.4.4.4.4.4.4.4.4.4.4.4.4.4.4.4.",
"4.4.4.4.4.4.4.4.4.4.4.4.4.4.4.4.4.4.4.4.4.4.4.4.4.4.4.4.4.4.4.4.4.4.4.4.4.4.4.4.4.4.4.4.4.4.4.4.4.4.",
"4.4.4.4.4.4.4.4.4.4.4.4.4.4.4.4.4.4.4.4.4.4.4.4.9 9 4.4.4.4.4.4.4.4.4.4.4.4.4.4.4.4.4.4.4.4.4.4.4.4.",
"4.4.4.4.4.4.4.4.4.4.4.4.4.4.4.4.4.4.4.4.4.4.4.4.0 0 4.4.4.4.4.4.4.4.4.4.4.4.4.4.4.4.4.4.4.4.4.4.4.4.",
"4.4.4.4.4.4.4.4.4.4.4.4.4.4.4.4.4.4.4.4.4.4.4.4.e s 4.4.4.4.4.4.4.4.4.4.4.4.4.4.4.4.4.4.4.4.4.4.4.4.",
"4.4.4.4.4.4.4.4.4.4.4.4.4.4.4.4.4.4.4.4.4.4.4.9 e f u 4.4.4.4.4.4.4.4.4.4.4.4.4.4.4.4.4.4.4.4.4.4.4.",
"4.4.4.4.4.4.4.4.4.4.4.4.4.4.4.4.4.4.4.4.4.4.4.9 w d i 4.4.4.4.4.4.4.4.4.4.4.4.4.4.4.4.4.4.4.4.4.4.4.",
"4.4.4.4.4.4.4.4.4.4.4.4.4.4.4.4.4.4.4.4.4.4.4.e 0 s B 4.4.4.4.4.4.4.4.4.4.4.4.4.4.4.4.4.4.4.4.4.4.4.",
"4.4.4.4.4.4.4.4.4.4.4.4.4.4.4.4.4.4.4.4.4.4.7 w a q V p 4.4.4.4.4.4.4.4.4.4.4.4.4.4.4.4.4.4.4.4.4.4.",
"4.4.4.4.4.4.4.4.4.4.4.4.4.4.4.4.4.4.4.4.4.4.8 9 a 6 N Z 4.4.4.4.4.4.4.4.4.4.4.4.4.4.4.4.4.4.4.4.4.4.",
"4.4.4.4.4.4.4.4.4.4.4.4.4.4.4.4.4.4.4.4.4.7 9 w a q v P 9 4.4.4.4.4.4.4.4.4.4.4.4.4.4.4.4.4.4.4.4.4.",
"4.4.4.4.4.4.4.4.4.4.4.4.4.4.4.4.4.4.4.4.4.7 7 a a 0 g U A 4.4.4.4.4.4.4.4.4.4.4.4.4.4.4.4.4.4.4.4.4.",
"4.4.4.4.4.4.4.4.4.4.4.4.4.4.4.4.4.4.4.4.7 4 9 q w a d L Y $ 4.4.4.4.4.4.4.4.4.4.4.4.4.4.4.4.4.4.4.4.",
"4.4.4.4.4.4.4.4.4.4.4.4.4.4.4.4.4.4.4.4.4 O m ! j 8 j H ~ V 4.4.4.4.4.4.4.4.4.4.4.4.4.4.4.4.4.4.4.4.",
"4.4.4.4.4.4.4.4.4.4.4.4.4.4.4.4.4.4.4.7 3 @ R ..A = k A ~ Y % 4.4.4.4.4.4.4.4.4.4.4.4.4.4.4.4.4.4.4.",
"4.4.4.4.4.4.4.4.4.4.4.4.4.4.4.4.4.4.4.7 - w _ ..D = z F E / V 4.4.4.4.4.4.4.4.4.4.4.4.4.4.4.4.4.4.4.",
"4.4.4.4.4.4.4.4.4.4.4.4.4.4.4.4.4.4.7 o 8 s R ^ c 8 c D Y _ Y = 4.4.4.4.4.4.4.4.4.4.4.4.4.4.4.4.4.4.",
"4.4.4.4.4.4.4.4.4.4.4.4.4.4.4.4.4.4.5 - w w c v w a v D Y ( _ C 4.4.4.4.4.4.4.4.4.4.4.4.4.4.4.4.4.4.",
"4.4.4.4.4.4.4.4.4.4.4.4.4.4.4.4.4.7 X 7 w 0 0 q 0 d m G Y /  .E = 4.4.4.4.4.4.4.4.4.4.4.4.4.4.4.4.4.",
"4.4.4.4.4.4.4.4.4.4.4.4.4.4.4.4.9 5 o w w a u a w j N H E ~  . .b * 4.4.4.4.4.4.4.4.4.4.4.4.4.4.4.4.",
"4.4.4.4.4.4.4.4.4.4.4.4.4.4.4.4.7 X 4 w w w w a a c A L E ~ _ *.Y % 4.4.4.4.4.4.4.4.4.4.4.4.4.4.4.4.",
"4.4.4.4.4.4.4.4.4.4.4.4.4.4.4.4.5 X 9 a 0 a 0 w d M F L ~ ( E *.+.r 4.4.4.4.4.4.4.4.4.4.4.4.4.4.4.4.",
"4.4.4.4.4.4.4.4.4.4.4.4.4.4.4.9 - - w 0 w a a u z N H Y ~ / E o.2.J @ 4.4.4.4.4.4.4.4.4.4.4.4.4.4.4.",
"4.4.4.4.4.4.4.4.4.4.4.4.4.4.4.9 . 4 0 a w 0 w d m D L E ~ / ~ { 3.{ # 4.4.4.4.4.4.4.4.4.4.4.4.4.4.4.",
"4.4.4.4.4.4.4.4.4.4.4.4.4.4.4.6 . 7 w w a w a k N D U ~ / / / ~ 2.#.> 4.4.4.4.4.4.4.4.4.4.4.4.4.4.4.",
"4.4.4.4.4.4.4.4.4.4.4.4.4.4.7 9 . 9 w a w w i c A H Y ~ / / / ~ >.*., 4.4.4.4.4.4.4.4.4.4.4.4.4.4.4.",
"4.4.4.4.4.4.4.4.4.4.4.4.4.4.4.8 . 9 a 0 u q d m S L E / / / / E :.*., 4.4.4.4.4.4.4.4.4.4.4.4.4.4.4.",
"4.4.4.4.4.4.4.4.4.4.4.4.4.4.4.0 X 9 w a 0 a j m G U W / / / / E :.#.: 4.4.4.4.4.4.4.4.4.4.4.4.4.4.4.",
"4.4.4.4.4.4.4.4.4.4.4.4.4.4.4.9 - 2 w w w w j m D U W / / / / / >.^ @ 4.4.4.4.4.4.4.4.4.4.4.4.4.4.4.",
"4.4.4.4.4.4.4.4.4.4.4.4.4.4.4.2 0 - w a u w g m D L E / / / ~ } o.B O 4.4.4.4.4.4.4.4.4.4.4.4.4.4.4.",
"4.4.4.4.4.4.4.4.4.4.4.4.4.4.4.4.0 5 9 a w w d v A H Y ~ / / ~ _ U < 4.4.4.4.4.4.4.4.4.4.4.4.4.4.4.4.",
"4.4.4.4.4.4.4.4.4.4.4.4.4.4.4.4.- e 9 0 w w s z N D L Y ~ ^ ~ U l   4.4.4.4.4.4.4.4.4.4.4.4.4.4.4.4.",
"4.4.4.4.4.4.4.4.4.4.4.4.4.4.4.4.4.- e a w w 0 d c A D H L L F h & 4.4.4.4.4.4.4.4.4.4.4.4.4.4.4.4.4.",
"4.4.4.4.4.4.4.4.4.4.4.4.4.4.4.4.4.4.- e w a w a d j v m v z w & 4.4.4.4.4.4.4.4.4.4.4.4.4.4.4.4.4.4.",
"4.4.4.4.4.4.4.4.4.4.4.4.4.4.4.4.4.4.4.4.2 w e a w w e e q 2 4.4.4.4.4.4.4.4.4.4.4.4.4.4.4.4.4.4.4.4.",
"4.4.4.4.4.4.4.4.4.4.4.4.4.4.4.4.4.4.4.4.4.4.t y y y y t 4.4.4.4.4.4.4.4.4.4.4.4.4.4.4.4.4.4.4.4.4.4.",
"4.4.4.4.4.4.4.4.4.4.4.4.4.4.4.4.4.4.4.4.4.4.4.4.4.4.4.4.4.4.4.4.4.4.4.4.4.4.4.4.4.4.4.4.4.4.4.4.4.4.",
"4.4.4.4.4.4.4.4.4.4.4.4.4.4.4.4.4.4.4.4.4.4.4.4.4.4.4.4.4.4.4.4.4.4.4.4.4.4.4.4.4.4.4.4.4.4.4.4.4.4.",
"4.4.4.4.4.4.4.4.4.4.4.4.4.4.4.4.<.;.-.&.@.| ) Q T T Q ) | @.&.-.;.<.4.4.4.4.4.4.4.4.4.4.4.4.4.4.4.4.",
"4.4.4.4.4.4.4.4.4.4.4.4.4.4.4.4.4.;.=.%.O.X.] ' ` ` ' ] X.O.%.=.;.4.4.4.4.4.4.4.4.4.4.4.4.4.4.4.4.4.",
"4.4.4.4.4.4.4.4.4.4.4.4.4.4.4.4.4.4.4.4.4.4.4.4.4.4.4.4.4.4.4.4.4.4.4.4.4.4.4.4.4.4.4.4.4.4.4.4.4.4.",
"4.4.4.4.4.4.4.4.4.4.4.4.4.4.4.4.4.4.4.4.4.4.4.4.4.4.4.4.4.4.4.4.4.4.4.4.4.4.4.4.4.4.4.4.4.4.4.4.4.4.",
"4.4.4.4.4.4.4.4.4.4.4.4.4.4.4.4.4.4.4.4.4.4.4.4.4.4.4.4.4.4.4.4.4.4.4.4.4.4.4.4.4.4.4.4.4.4.4.4.4.4.",
"4.4.4.4.4.4.4.4.4.4.4.4.4.4.4.4.4.4.4.4.4.4.4.4.4.4.4.4.4.4.4.4.4.4.4.4.4.4.4.4.4.4.4.4.4.4.4.4.4.4.",
"4.4.4.4.4.4.4.4.4.4.4.4.4.4.4.4.4.4.4.4.4.4.4.4.4.4.4.4.4.4.4.4.4.4.4.4.4.4.4.4.4.4.4.4.4.4.4.4.4.4."
};
