/* XPM */
static char *fad9de34872a4d59c26f75544e60d6dfOR1K7SfRc8fTWkex[] = {
/* columns rows colors chars-per-pixel */
"58 47 170 2 ",
"   c None",
".  c #520005",
"X  c #5E0005",
"o  c #630205",
"O  c #650A06",
"+  c #640208",
"@  c #660D08",
"#  c #661305",
"$  c #681A06",
"%  c #671308",
"&  c #6A130C",
"*  c #6B1B0A",
"=  c #710517",
"-  c #711116",
";  c #741C15",
":  c #6B2405",
">  c #6F2B06",
",  c #6E240A",
"<  c #6F2909",
"1  c #71260F",
"2  c #722C0C",
"3  c #723306",
"4  c #773D06",
"5  c #783D06",
"6  c #74320C",
"7  c #79360F",
"8  c #763809",
"9  c #7A3B0D",
"0  c #762516",
"q  c #752B12",
"w  c #792D16",
"e  c #7C3316",
"r  c #7E3A15",
"t  c #7B4206",
"y  c #7F4807",
"u  c #794008",
"i  c #7E4010",
"p  c #813D16",
"a  c #814A07",
"s  c #844E0A",
"d  c #865307",
"f  c #855108",
"g  c #895708",
"h  c #8C5B08",
"j  c #854516",
"k  c #894516",
"l  c #874916",
"z  c #894B16",
"x  c #8E5415",
"c  c #915616",
"v  c #925C14",
"b  c #995B17",
"n  c #936308",
"m  c #9A6C09",
"M  c #9F710A",
"N  c #966114",
"B  c #9A6514",
"V  c #9E6A15",
"C  c #A2740C",
"Z  c #A5790B",
"A  c #AA7D0B",
"S  c #A26717",
"D  c #A16E15",
"F  c #A57315",
"G  c #A97416",
"H  c #A77912",
"J  c #AC7B15",
"K  c #AE830B",
"L  c #B2860C",
"P  c #B58A0D",
"I  c #BA8E0D",
"U  c #BC9600",
"Y  c #BF9800",
"T  c #BE930D",
"R  c #AF8015",
"E  c #B38414",
"W  c #B78814",
"Q  c #BA8D13",
"!  c #BE9114",
"~  c #C39C00",
"^  c #C1970E",
"/  c #C59B0E",
"(  c #C99F0F",
")  c #C29514",
"_  c #C69913",
"`  c #C99D13",
"'  c #C6A000",
"]  c #CBA403",
"[  c #CEA50E",
"{  c #CEA80D",
"}  c #D2A70F",
"|  c #D4AC0D",
" . c #D8AE0D",
".. c #D7B00F",
"X. c #DAB20F",
"o. c #CDA212",
"O. c #D1A613",
"+. c #D6AB12",
"@. c #D9AE12",
"#. c #DDB311",
"$. c #E5BB0E",
"%. c #E0B512",
"&. c #E0B711",
"*. c #E3B911",
"=. c #E3BA11",
"-. c #E3B912",
";. c #E3B812",
":. c #E3BA12",
">. c #E4B911",
",. c #E5BB11",
"<. c #E6BB11",
"1. c #E4BA12",
"2. c #E5BA12",
"3. c #E5BB12",
"4. c #E5BB13",
"5. c #E6BA12",
"6. c #E6BB12",
"7. c #E7BD11",
"8. c #E7BC11",
"9. c #E5BC13",
"0. c #E6BC12",
"q. c #E7BD12",
"w. c #E7BC12",
"e. c #E5BB12",
"r. c #E8BE11",
"t. c #E9BF13",
"y. c #EABF12",
"u. c #EBBE13",
"i. c #E9BE12",
"p. c #EAC011",
"a. c #EBC111",
"s. c #EAC012",
"d. c #EBC012",
"f. c #EBC112",
"g. c #ECC211",
"h. c #ECC012",
"j. c #ECC112",
"k. c #EDC312",
"l. c #EDC313",
"z. c #EEC312",
"x. c #EEC412",
"c. c #EFC412",
"v. c #EFC512",
"b. c #EEC413",
"n. c #EFC413",
"m. c #EFC514",
"M. c #EBC112",
"N. c #F0C413",
"B. c #F1C613",
"V. c #F2C712",
"C. c #F3C613",
"Z. c #F4C713",
"A. c #F5C713",
"S. c #F1C613",
"D. c #F4C813",
"F. c #F5C813",
"G. c #F6CA13",
"H. c #F7CA13",
"J. c #F7CB13",
"K. c #F7CA14",
"L. c #F5C913",
"P. c #F8CA13",
"I. c #F9CB13",
"U. c #F8CA14",
"Y. c #F8CC14",
"T. c #F9CC14",
"R. c #FBCE14",
"E. c #FACD14",
"W. c #FFD515",
"Q. c #FFD014",
/* pixels */
"                          m.d.#.} / T T T _ o.O.+.                                                                  ",
"                    6.d.Z.[ C s 7 e r p k z c b B S D G G J J E W Q Q Q ) O.=.w.                                    ",
"                  6.T.o.a + q p j l l j j j j p p p r r r e e r p ; z Q @.y.Z.K.U.K.G.C.6.6.6.                      ",
"                6.C./ o 2 l l j j j j j j j j j j j j j j l l l r E =.h.n.h.d.w.=.=.=.w.d.C.G.C.w.                  ",
"              6.T.#.3 3 l j j j j j j j j j j j j j j j j j l e W d.y.w.{ P C B v v v B J ) #.d.Z.6.                ",
"              6.h.K o j j j j j j j j j j j j j j j j j j l r B w.y.#.n 1 q e r p p p r e w l Q w.n.w.              ",
"              Z.6.g < j j j j j j j j j j j j j j j j j j l w _ d.=.h & z l l l j j j j l l j ; R y.P.              ",
"            =.T.+.> 9 j j j j j j j j j j j j j j j j j j j j @.h./ + z j j j j j j j j j j j l e O.G.6.            ",
"            =.G.T o j j j j j j j j j j j j j j j j j j j j x #.h.L * l j j j j j j j j j j j l w Q n.6.            ",
"            6.h.C O j j j j j j j j j j j j j j j j j j j j x %.h.K * l j j j j j j j j j j j l e J d.y.            ",
"            Z.6.f < j j j j j j j j j j j j j j j j j j j j x #.h.P & l j j j j j j j j j j j j r B w.G.            ",
"          =.T.o.$ 9 j j j j j j j j j j j j j j j j j j j j j @.n.^ & l j j j j j j j j j j j j j x #.P.6.          ",
"          h.h.C # j j j j j j j j j j j j j j j j j j j j l r o.n.{ , j j j j j j j j j j j j j j p +.G.6.          ",
"        w.h.I @ j l l l l j j j j j j j j j j j j j j j j l w ) h.#.5 j j j j j j j j j j j j j l w ) h.6.          ",
"  6.6.C.d.o.N x j e w e r j j l l l l j j j j j j j j j j l e J d.6.h e l j j j j j j j j j j j l r D d.C.w.        ",
"6.W.y.w.6.w.y.=.@.o.! R V x j e w e r j j l l l l j j j j l r D w.y.m q l j j j j j j l l l l j j j 0 _ d.C.6.      ",
"  w.=.6.w.w.w.y.y.d.d.d.w.%.@.o.! J V x j e w e r j j l l z p B w.y.M 2 z l l l j j p r e w e r j c B J =.w.C.h.6.w.",
"  %.6.....#.#.%.6.6.w.w.w.w.y.$.d.d.w.%.@.o.! J V x j e w r - Q d.6.d ; r w w r j z N F E Q ` O.#.%.w.y.w.w.y.w.T.w.",
"  y.G.w.d.w.%... . ...#.#.w. .] w.w.w.w.y.d.d.d.w.%.@.o.! J W 6.d.O.s D J W ) o.+.#.6.y.d.h.h.h.d.y.w.6.=.%.#...6.  ",
"    T.} A ` #.w.d.y.6.#.#.{ ~ ~ X.%.=.6.w.w.w.6.w.w.y.d.d.d.d.w.w.%.=.y.d.h.h.h.d.y.w.6.=.#.#.#. .| } } |  ...#.%.  ",
"    C.+.o q j v J ) +.=.| Y ~ ~ ~  .| }  ...#.=.6.w.w.w.6.6.w.y.y.y.y.6.=.%.#.#. .| } } } }  ...#.6.y.d.d.w.6.G.y.  ",
"    w.w.d r l p e 0 C ~ U ] w.X.~ ] $.w.#. .} { { }  .#.%.=.#.#...| } { { { }  ...#.6.y.d.d.w.%.@.O.) W H s ( R.    ",
"    6.G.m , l j l l x K ~ ] s.w.~ ~ '  .w.h.h.y.=.#. .} { { { }  ...%.w.y.d.y.6.%.@.o.) E F N z p e w e q : @.C.    ",
"    6.R.L % l j j j j r Z ~ | ] ' T B j v J ) +.=.d.y.w.6.=.w.w.6.#.+.o.! E F v z p e w w r p j j l l z 6 h d.6.    ",
"      T./ % l j j j j l r L ~ ~ L p p j p e w r x F #.w.6.6.y.#.N l p e w w r p j j l l z l p r j j j l @ A T.6.    ",
"      h.+.> j j j j j j j x ' I e j l j j l l j j e @.y.6.=.y.#.j j l l l z z j j j j j r r N H x j j j O / R.      ",
"      w.6.y r j j j j j j r L c p j j j j j j j j j @.y.6.=.y.#.z j j p j e r j j j j p B +...| Q r l r 3 @.n.      ",
"      w.C.n q l j j j j j j j j j j j j j j j j j j @.y.6.%.y.#.z p x Q / _ H p j j j j #.y.o./ H p l 2 h h.w.      ",
"      6.T.Z * l j j j j j j j j j j j j j j j j j p +.d.6.%.y.#.z r B | | d.d.F r l j l %.#.x j p j l O A T.6.      ",
"        R.I & l j j j j j j j j j j j j j j j j j p +.d.=.#.y.#.z j j J H Q n.W w l l w Q C._ e l j j o / R.        ",
"        T./ * l j j j j j j j j j j j j j j j j j r O.d.=.#.y.#.z j j p = ) h.D p l l l p +.w.v p l 9 3 @.h.        ",
"        C.} < j j j j j j j j j j j j j j j j j l r O.d.=.#.y.#.z j j l j @.%.r e r w e j O.d.N p l 2 h h.w.        ",
"        y.#.8 j j j j j j j j j j j j j j j j j l r o.d.=.#.y.#.z j j l r +.d.W D J W ` %.n.` p j l @ A T.6.        ",
"        y.=.u r l j j j j j j j j j j j j j j j l e o.d.=.#.y.#.z j j l r F 6.n.n.n.n.d.#.Q l j j j o / R.          ",
"        w.y.h X * 7 j l j j j j j j j j j j j j l e ` d.=.#.y.#.z j j j j r v E Q E H N j e j j j 7 3 @.h.          ",
"        w.w.%.( C t o * 7 j l j j j j j j j j j l e ` h.=...y.#.z j j j j l p w w w e p j l j j j < h h.w.          ",
"        w.T.n.h.d.#./ C t o * 7 j l j j j j j j l e ` h.%...y.#.z j j j j j j l l l l j j j j j l $ A T.6.          ",
"            w.h.Z.d.h.d.#./ M 5 o , r l l j j j l e ` h.%...y.#.z j j j j j j j j j j j l l l j 6 . ^ T.            ",
"                w.6.G.h.y.h.d.#.^ m 3 o 2 j l j l e ` h.%...y.#.z j j j j j j j j l l j 7 * O > h K #.y.            ",
"                      w.h.G.y.y.h.d.@.P g # * r z e ` h.%. .y.#.z j j j j j l j r 2 + $ y M T +.y.U.Q.w.            ",
"                          6.w.G.C.6.y.h.6.[ M > $ 1 o.h.%. .y.#.z j l j i 2 @ o 8 n L { =.C.R.G.w.6.                ",
"                                w.y.G.y.w.d.d.+.A # ( h.#. .y.#.l 6 * o : f Z / #.y.T.T.d.6.6.                      ",
"                                    w.w.G.h.6.d.d.+.#.y.%. .y.#.: 4 m I O.6.C.T.G.w.6.                              ",
"                                          w.h.G.w.y.y.w.%. .y.%.( #.d.D.T.C.6.6.                                    ",
"                                              w.w.G.d.y.%.| y.w.G.T.d.6.6.                                          ",
"                                                    w.K.y.X.U.6.6.w.                                                ",
"                                                        #.}                                                         "
};