/* XPM */
static char *_aaa11f2c67d4af5fb78f93362c4a149iHI9JK8SFJYDfBdW[] = {
/* columns rows colors chars-per-pixel */
"60 50 161 2 ",
"   c None",
".  c #020504",
"X  c #070A0B",
"o  c #0B0D0D",
"O  c #15140E",
"+  c #0B0F11",
"@  c #0D1011",
"#  c #121412",
"$  c #181611",
"%  c #1D1A13",
"&  c #131719",
"*  c #161A1C",
"=  c #1B1C1D",
"-  c #221E16",
";  c #232017",
":  c #25211A",
">  c #29261E",
",  c #1B1F21",
"<  c #1D2224",
"1  c #1F2429",
"2  c #242523",
"3  c #292925",
"4  c #232629",
"5  c #24292C",
"6  c #2B2C2A",
"7  c #31312C",
"8  c #272E34",
"9  c #292F33",
"0  c #2C3134",
"q  c #2E363B",
"w  c #343534",
"e  c #393936",
"r  c #31373C",
"t  c #35393A",
"y  c #3A3A39",
"u  c #353B43",
"i  c #3A444A",
"p  c #3D484E",
"a  c #3C4551",
"s  c #444544",
"d  c #484846",
"f  c #474948",
"g  c #4B4B4B",
"h  c #4F504F",
"j  c #444E52",
"k  c #454E5A",
"l  c #4F5050",
"z  c #465359",
"x  c #4A565D",
"c  c #4C585E",
"v  c #545453",
"b  c #575857",
"n  c #5B5C5B",
"m  c #5E605F",
"M  c #4C5762",
"N  c #4D5B63",
"B  c #515D64",
"V  c #5F6364",
"C  c #56646C",
"Z  c #58666F",
"A  c #5A6774",
"S  c #596972",
"D  c #5D6C7B",
"F  c #646565",
"G  c #6A6B6B",
"H  c #616B70",
"J  c #616F7F",
"K  c #6A7074",
"L  c #62717B",
"P  c #6C7478",
"I  c #737473",
"U  c #757778",
"Y  c #757B7D",
"T  c #7C7D7D",
"R  c #647680",
"E  c #697C86",
"W  c #667788",
"Q  c #6B7A8A",
"!  c #737E84",
"~  c #7D7F80",
"^  c #6F838E",
"/  c #7E8487",
"(  c #728692",
")  c #768B97",
"_  c #798B95",
"`  c #7B8F9E",
"'  c #7D929F",
"]  c #7F95A2",
"[  c #848484",
"{  c #86898A",
"}  c #8C8D8D",
"|  c #8F9090",
" . c #929292",
".. c #979C9E",
"X. c #9E9F9E",
"o. c #8296A4",
"O. c #839AA9",
"+. c #939DA2",
"@. c #93A3AD",
"#. c #8CA4B3",
"$. c #94A8B4",
"%. c #93ABB9",
"&. c #99AEBB",
"*. c #A4A4A4",
"=. c #A9A9A9",
"-. c #A4ADB2",
";. c #A5B1B7",
":. c #ABB5BA",
">. c #B2B3B2",
",. c #BBBBBB",
"<. c #96B1C1",
"1. c #9BB5C5",
"2. c #9BB7C9",
"3. c #9EBACB",
"4. c #A3B9C6",
"5. c #A2BECE",
"6. c #ABBFCA",
"7. c #B6C0C7",
"8. c #BDC0C2",
"9. c #B4C4CD",
"0. c #BCC5CA",
"q. c #BDC8CE",
"w. c #ABC3D1",
"e. c #B0C4D1",
"r. c #BECBD1",
"t. c #C5C5C5",
"y. c #C1C7C9",
"u. c #CCCCCC",
"i. c #CBCFD2",
"p. c #CDD1D3",
"a. c #C4D3DB",
"s. c #CED6DB",
"d. c #D4D4D4",
"f. c #D1D5D8",
"g. c #DDDDDD",
"h. c #DFDFDF",
"j. c gray87",
"k. c #DCDEDF",
"l. c #D9DAD9",
"z. c #DFE0DF",
"x. c #D5DCE0",
"c. c #DBDFE1",
"v. c gray89",
"b. c #E2E3E2",
"n. c #E1E1E2",
"m. c #E4E3E3",
"M. c #E1E3E4",
"N. c gray90",
"B. c #E4E4E4",
"V. c #E6E5E5",
"C. c #E6E6E6",
"Z. c #E7E7E7",
"A. c #E6E7E7",
"S. c #E5E6E5",
"D. c #E8E7E7",
"F. c #E8E7E7",
"G. c #E7E8E8",
"H. c gray91",
"J. c #E9E9E9",
"K. c #E9E8E8",
"L. c #EAEAEA",
/* pixels */
"                                                                                                                        ",
"                                                                                                                        ",
"                                                                                                                        ",
"                                                                                                                        ",
"                                                                                                                        ",
"                                                                                                                        ",
"                                                                                                                        ",
"                                                                                                                        ",
"                                                  0 n T |  .} T m w                                                     ",
"                                                F t.v.H.H.H.H.H.v.u.[ <                                                 ",
"                                              c f.H.N.N.N.N.N.N.N.N.N.[                                                 ",
"                                            0 &.M.N.N.N.N.N.N.N.N.N.N.d.s                                               ",
"                                            R 6.j.N.N.N.j.j.N.N.N.N.N.H.}                                               ",
"                                          1 #.1.l.N.N.>.v v >.N.N.N.t.I [ 6                                             ",
"                                          q <.%.d.N.d.d 3 3 g l.N.v.F : y y                                             ",
"                                          i 2.$.d.H.t.s g e w t.H.d.g e 7 f                                             ",
"                                          z 3.@.d.D.d.l v s s d.N.j.n s e I                                             ",
"                                          S 5.@.l.N.N.*.h v *.N.N.N.*.f [ *.                                            ",
"                                        o ( 3.@.v.N.N.H.d.d.H.H.H.H.G.d.N.>.*                                           ",
"                                        5 #.2.-.N.N.>.} t.*.}  . .} } *.*. .2                                           ",
"                                        x 3.%.8.N.N.T y b s f f f y 3 3 2 G 2                                           ",
"                                      * ' 5.$.d.N.H.=.s t s b b b s 7 2 3 [                                             ",
"                                      N 3.2.:.m.N.N.j.F s b b b b e 7 2 G {                                             ",
"                                    i %.2.1.q.v.N.N.N.u.F s g v s 6 2 g t.F                                             ",
"                                  9 R N ^ 5.w.x.M.N.N.N.l.*.I n v b [ d.u.0                                             ",
"                                . * @ < O.O.o.e.c.N.N.N.N.H.N.z.l.j.H.G.~                                               ",
"                                    . t p < ) a.v.t.,.N.N.j.v.p...l.N.:.5                                               ",
"                                  . .     z 6.y.-.! +.s.l.;.0.@.@.l.r.j                                                 ",
"                                        q #.4.%.] c ' +./ %._ ( 4.9.Z o F { y                 %                         ",
"                                      4 ` %.( x , 5 S Y { H < E 3.Z o = G K r P t   % - # * $ -                         ",
"                                    . r z 0 @     z C i.D.u.G ^ z X   0 B ( j V > : ; $ o 4 o .                         ",
"                                                @ N N s.N.N.U 2 O ; : w { ..{ X.3     . , u i &                         ",
"                                                . o 0 6.N.N.F % - % O   n b n f         4 p J 8                         ",
"                                                    $ L 7.p.!                           5 N O.u                         ",
"                                                        M C i                           u W ` 0                         ",
"                                                                                        u A D *                         ",
"                                                                                      X u Q C                           ",
"                                                                                      < D o.r                           ",
"                                                                                    @ a W p                             ",
"                                                                                    < k q                               ",
"                                                                                  # 9 1                                 ",
"                                                                              . . @ +                                   ",
"                                                                              .                                         ",
"                                                                                                                        ",
"                                                                                                                        ",
"                                                                                                                        ",
"                                                                                                                        ",
"                                                                                                                        ",
"                                                                                                                        ",
"                                                                                                                        "
};
