/* XPM */
static char *d5xvti0_beb25e1a_86e0_4ae0_bee3_aeb5ddbc529e1708315038[] = {
/* columns rows colors chars-per-pixel */
"50 50 36 1 ",
"  c #14171E",
". c #121622",
"X c #181621",
"o c #161B24",
"O c #191E26",
"+ c #161E29",
"@ c #1A1E29",
"# c #1C2026",
"$ c #16212B",
"% c #1C232D",
"& c #1F282F",
"* c #1E2631",
"= c #1F2832",
"- c #21252E",
"; c #24292F",
": c #212632",
"> c #232A35",
", c #292E36",
"< c #262D39",
"1 c #292E3A",
"2 c #273037",
"3 c #27303A",
"4 c #2B323D",
"5 c #30333F",
"6 c #2E3541",
"7 c #2F3943",
"8 c #313641",
"9 c #323A44",
"0 c #383C47",
"q c #363D49",
"w c #383E4A",
"e c #3B424D",
"r c #3C4451",
"t c #3C4952",
"y c #434B56",
"u c #434D5A",
/* pixels */
",<<,>q64<6<-,44-:>%><4><;<>43,q64,4>-,44*::->,4:,-",
"4<6<99<<<6:4urr%,>>436>>11<6<89><37:6yrr%,>>446><>",
"4<3<3<<><<>w6%+4<>:>>>44:><<<<<<<<>>e6%@4<<=*<:44*",
"643<6363<1<66<*1<>>*<>6<:<6<<6663,1>66<*4<>>*><6<-",
">>>%46%>*>O>>:%>>*%%:%%>@>>=%46%::>%:<%%>>+*%=%->%",
"-26<4,4%,6191>>4<,:840q7<+66<411->8284>>2>4-64q06>",
"40<6446<47766144<961<66<>1766637<67664346<964<66>>",
"16<<<<::<=>>>>*>>*>>>>>>>16><<<*:>=>>>>::>>>>:>>>>",
",6><<<=,6=><***>:>>,><>>>16>><<*16>>>>%*>>-,<>><>>",
">8><=>*%<**:=***++:<<><>>>8<<>>%@<**>=:**+O:<<><<>",
":6>#o>:99,<>.%:>:-#:*o*:<>5:Oo<>99<<>.%*>:-@%@%%:>",
"4eq er1re84:,96999X6>><791w0 re2rr16-493809@4>>189",
">1:,r*>$**>+w6%>>$3r<4>>=<3:2e%:*+>>$e4*>=*<r11>>>",
"<<><<>>>>>**91><<>><>**=<<3<14>>>>>*%93=><>><>>**>",
">>>67>>>>=>*><<<>>->><>><>>>47><><>>:>>33<>%><>,><",
"><><6**>>***><>:%::@=*+*==>>46%*>**>%>>>*%=:+**o**",
"::-->.-O%::-,4%50@%5>,e>-::%:,.-O%::->,%50%%8>>r>@",
"73qq>qr:8::>45>q6%:q><e4<6<e9>qe-8>%>86>q4%-q<>w4<",
"<3444:%><%**%%:8$=:%+:O>4><34<>*>4%:%%**8$%>+@:+>1",
"4><>>>>:>=*>%:>8*&%>-::>>1<<<<=>:>**-:*>7:*->%>:>>",
"=:*:::*%2-%O%%@#%%%O%-#%:*>*::::%,*-#%*O#%%#O%%%::",
"4>48<6>00<6:>,444>O5,>84-4:4835>07<4::<<54>O4>>9,@",
"4<4:>>><=<>=*<496<>5<<4<>433>>323=>>>=<487>:53<4,:",
"=23:><<4=<>:><><<44><3><>:<3=>>>4=3>:><<>364,33<<,",
"<<<=>:>4>>>>*><161>><<1<,>><>>::3>>>>=>><46:<<>1<:",
"<<4,>q44,4<*,44%>:-><1>>;3>44>w5434>:>44*=-%:<1>,:",
"433397<<<6:4urr@>,>119:<<334388><<4=6uer%,><119:><",
"34<,3<<<4<>e6$+81>>:>:61&:333433<33:r4%%4<>*:<>1,:",
"666<444>3<>644:1<<>:,<4,*66<>66<3<<>46,:13<>>><6,*",
"=:**86%>:>@=>:%>>+*@>+%>+>=>%64*>:>#><=%>>%*+>*#>%",
"*<7,4,4-,8494,>4:6:86q06>@644114-,8194:>4>4-84qq6>",
"69<3636<467643<63981<67<>67636<7>46666444<944<67<<",
"16><<<=:<>>>=>=>>*>>>>>>=463<<<::>:>>>>=:>*>>=>>>=",
"<6<<<<*<6:>2=*%>>->>>>>>*<4><<<>46:>>:=*>>*,<><<>>",
">8>>>=%%<**:>***$%:3<>1<2>6<>>**@3**:>*%*$%%<>><>>",
"-5>@o,>99<4:.%*>:@#:%@*:,:4>%.>>99<1>.%:>:%O**+%>>",
"4e0o0r3ee46:694009O4>>,404eq.ee<re36*494999O5>,<69",
">3>4r%>$$=:+e6%:=*<r<4<>=><>3e*>%$>>$e4=>:*,t<4>>>",
"<<>>3=>3<>**9,><>>>>>=:*><<>,4>><<==*94>>>>>>>>*:>",
">>>46><><*>*>><<,>>><>>><>>>48=>=<=>%>>><<>:><<>>>",
">>>48%*>==%*>>>:$=-#:%o:=><>49*=>>=&->>>>+*:#:%o::",
":>::>.*O%*--,,%59%-4,>r:%::--:.%o%=--,1%6q@-8><r:-",
"64qq>9e:8>*>472q6%:0><q4<6<qq>qr-8,%:88>q6%*q<>w4>",
"><<6,>%,<%&%%%:8%%:%%:+>4><343:*><%-%%%-8+*>++=@>1",
"3<<<>>>>>==%=>>4*>*:%>->><<<<<:>>>:>-*>>6:%:>*:*>>",
">*>:>::%<%%%%%@%:@@o%%#%>:=::>:*%,%@$%%%@%-@O-:o%>",
"4>64>6,80>4:>2158>@4<<94%4>47<6>99,4::<<45>O8<>q,%",
"6<4>=<>3=<>>>>488>:6,<4>,6<4>><><*<>>><404>>4<111>",
"*<<*><<4>>>>>>><<6<<<<>>>*<<*><>4>><>>>>><6<<<<<<>",
"<<<=>>>3>>>*>>>6<6>><<6<>>1<>>>>1><>*><<6<6>><<<<>"
};
